# xmcd
#
# Track frame offsets: 
#        150
#        14165
#        26574
#        41062
#        55513
#        70146
#        83348
#        98655
#        114656
#        130502
#        143969
#        156073
#        170018
#        183148
#        197670
#        208973
#        222245
#        235148
#
# Disc length: 3275 seconds
#
# Revision: 0
# Processed by: cddbd v1.5.1PL2 Copyright (c) Steve Scherf et al.
# Submitted via: ExactAudioCopy v0.95b3
#
DISCID=f50cc912
DTITLE=Various Artist - Legend's France Chanson's
DYEAR=2001
DGENRE=Chanson
TTITLE0=Edith Piaf - La vie en rose
TTITLE1=Tino Rosi - Tchi tchi
TTITLE2=Leo Marjane - La chappelle au clair de lune
TTITLE3=Charles Trenet - Que reste-t-il de nos amours_
TTITLE4=Gloria Lasso - Histoire d'un amour
TTITLE5=Maurice Chevalier - Ma pomme
TTITLE6=Lucienne Delyle - Sur les quais du vieux Paris
TTITLE7=Luis Mariano - Mexico
TTITLE8=Les Compagnons de la Chanson - Un mexicain
TTITLE9=Lys Gauty - Les boneur est entre dans mon coeur
TTITLE10=Josephine Baker - La petite Tonkinoise
TTITLE11=Ray Ventura et Ses Collegiens - Qu'est-qu'on attend (pour etr
TTITLE11=e heureux) 
TTITLE12=Mistinguett - Ca! C'est Paris
TTITLE13=Ouvrard - Je n'suis pas bien portant
TTITLE14=Fernandel - Ma creole
TTITLE15=Albert Prejean - Comme de bien entendu
TTITLE16=Georges Guetary and Bourvil - C'est la vie boheme
TTITLE17=Anni Cordy - T'as vu Monte Carlo
EXTD=
EXTT0=
EXTT1=
EXTT2=
EXTT3=
EXTT4=
EXTT5=
EXTT6=
EXTT7=
EXTT8=
EXTT9=
EXTT10=
EXTT11=
EXTT12=
EXTT13=
EXTT14=
EXTT15=
EXTT16=
EXTT17=
PLAYORDER=
